<?xml version="1.0" standalone="no"?>
<!DOCTYPE svg PUBLIC "-//W3C//DTD SVG 20010904//EN"
 "http://www.w3.org/TR/2001/REC-SVG-20010904/DTD/svg10.dtd">
<svg version="1.0" xmlns="http://www.w3.org/2000/svg"
 width="317.000000pt" height="159.000000pt" viewBox="0 0 317.000000 159.000000"
 preserveAspectRatio="xMidYMid meet">

<g transform="translate(0.000000,159.000000) scale(0.100000,-0.100000)"
fill="#000000" stroke="none">
<path d="M728 973 l142 -4 0 -134 0 -134 -142 -4 -143 -3 148 -2 147 -2 0 145
0 145 -147 -2 -148 -2 143 -3z"/>
<path d="M980 835 l0 -145 74 0 c59 0 78 4 100 21 31 24 36 81 10 110 -15 16
-15 20 0 41 23 32 20 65 -9 93 -21 22 -33 25 -100 25 l-75 0 0 -145z m154 83
c19 -31 -4 -53 -63 -56 l-51 -3 0 41 0 41 51 -3 c36 -2 55 -8 63 -20z m-6
-110 c7 -7 12 -21 12 -33 0 -33 -20 -45 -72 -45 l-48 0 0 45 0 45 48 0 c26 0
53 -5 60 -12z"/>
<path d="M1832 957 c-32 -34 -30 -89 4 -116 15 -12 36 -21 48 -21 60 -1 95
-40 66 -75 -15 -18 -82 -20 -112 -4 -30 16 -48 -5 -25 -29 13 -13 34 -17 83
-17 57 0 68 3 85 24 25 30 25 85 0 110 -10 10 -38 22 -62 26 -54 9 -69 20 -69
51 0 35 34 49 82 35 56 -17 82 5 33 27 -45 21 -109 15 -133 -11z"/>
<path d="M2230 960 c0 -13 7 -20 20 -20 13 0 20 7 20 20 0 13 -7 20 -20 20
-13 0 -20 -7 -20 -20z"/>
<path d="M2317 953 c-4 -3 -7 -17 -7 -30 0 -12 -4 -23 -10 -23 -5 0 -10 -7
-10 -15 0 -8 5 -15 10 -15 6 0 10 -30 10 -70 0 -57 4 -74 20 -90 22 -22 60
-27 60 -7 0 7 -9 18 -20 25 -16 10 -20 23 -20 73 0 52 3 62 20 66 11 3 20 12
20 19 0 8 -9 14 -20 14 -16 0 -20 7 -20 30 0 28 -17 40 -33 23z"/>
<path d="M707 921 c-4 -17 -3 -21 5 -13 5 5 8 16 6 23 -3 8 -7 3 -11 -10z"/>
<path d="M752 920 c0 -14 2 -19 5 -12 2 6 2 18 0 25 -3 6 -5 1 -5 -13z"/>
<path d="M1210 824 c0 -72 10 -111 34 -126 17 -12 71 -9 84 4 9 9 12 9 12 0 0
-7 9 -12 20 -12 19 0 20 7 20 105 0 98 -1 105 -20 105 -18 0 -20 -7 -20 -73 0
-61 -3 -77 -20 -92 -18 -17 -21 -17 -45 -1 -23 15 -25 22 -25 91 0 68 -2 75
-20 75 -18 0 -20 -7 -20 -76z"/>
<path d="M1420 795 c0 -98 1 -105 20 -105 17 0 19 8 22 83 l3 82 30 1 c47 2
68 14 54 30 -14 17 -43 18 -72 3 -16 -9 -22 -9 -25 0 -2 6 -10 11 -18 11 -11
0 -14 -21 -14 -105z"/>
<path d="M1577 893 c-4 -3 -7 -69 -7 -145 0 -131 1 -138 20 -138 17 0 20 7 20
50 0 47 1 50 19 40 31 -16 69 -12 91 10 29 29 28 127 -1 164 -22 28 -56 34
-90 16 -13 -7 -19 -7 -19 0 0 11 -23 14 -33 3z m111 -45 c26 -26 7 -128 -24
-128 -38 0 -63 64 -45 113 11 29 47 37 69 15z"/>
<path d="M2030 810 c0 -82 2 -91 23 -104 13 -9 45 -14 80 -14 l57 1 0 104 c0
94 -2 104 -17 101 -15 -3 -18 -16 -21 -80 -2 -65 -6 -79 -22 -88 -14 -8 -26
-7 -40 0 -17 9 -20 21 -20 90 0 73 -2 80 -20 80 -19 0 -20 -7 -20 -90z"/>
<path d="M2230 795 c0 -98 1 -105 20 -105 19 0 20 7 20 105 0 98 -1 105 -20
105 -19 0 -20 -7 -20 -105z"/>
<path d="M2443 885 c-49 -34 -49 -146 0 -180 27 -19 87 -20 113 -1 29 22 6 41
-29 25 -33 -15 -72 0 -80 30 -5 20 -1 21 64 21 l69 0 0 31 c0 66 -84 111 -137
74z m77 -35 c31 -31 24 -40 -30 -40 -54 0 -61 9 -30 40 11 11 25 20 30 20 6 0
19 -9 30 -20z"/>
<path d="M676 871 c-20 -22 -14 -41 13 -41 17 0 35 -32 32 -54 -1 -5 6 -3 15
5 16 13 16 14 1 17 -10 2 -17 12 -17 23 0 14 -7 19 -25 19 -29 0 -31 7 -8 32
9 10 14 18 11 18 -3 0 -13 -9 -22 -19z"/>
<path d="M737 883 c-5 -8 -4 -13 2 -13 6 0 11 -9 11 -20 0 -15 6 -20 28 -19
20 1 22 3 6 6 -11 2 -25 16 -30 31 -7 19 -12 23 -17 15z"/>
<path d="M774 778 l-19 -23 23 19 c21 18 27 26 19 26 -2 0 -12 -10 -23 -22z"/>
<path d="M711 744 c0 -11 3 -14 6 -6 3 7 2 16 -1 19 -3 4 -6 -2 -5 -13z"/>
</g>
</svg>
