<?xml version="1.0" standalone="no"?>
<!DOCTYPE svg PUBLIC "-//W3C//DTD SVG 20010904//EN"
 "http://www.w3.org/TR/2001/REC-SVG-20010904/DTD/svg10.dtd">
<svg version="1.0" xmlns="http://www.w3.org/2000/svg"
 width="373.000000pt" height="135.000000pt" viewBox="0 0 373.000000 135.000000"
 preserveAspectRatio="xMidYMid meet">

<g transform="translate(0.000000,135.000000) scale(0.100000,-0.100000)"
fill="#000000" stroke="none">
<path d="M1110 1310 c-37 -25 -55 -30 -102 -30 -67 0 -65 4 -46 -110 l12 -70
-50 -53 c-28 -28 -60 -65 -71 -81 -19 -27 -25 -30 -75 -27 -43 2 -59 -2 -81
-20 -39 -30 -35 -77 8 -99 17 -8 32 -16 34 -17 1 -1 -9 -17 -24 -37 -63 -82
-86 -226 -45 -278 19 -25 19 -26 1 -42 -11 -10 -25 -31 -32 -47 -10 -26 -10
-33 4 -47 20 -20 74 -19 113 1 27 14 35 14 84 -4 30 -10 80 -18 111 -19 38 0
61 -5 69 -15 11 -13 7 -15 -29 -15 -23 0 -56 -7 -72 -16 -25 -13 -30 -20 -27
-46 4 -45 69 -78 150 -78 53 0 59 -2 68 -25 12 -32 -8 -85 -41 -110 l-24 -17
25 7 c54 15 85 41 104 89 l20 47 -22 42 c-12 23 -22 55 -22 71 0 17 -9 39 -20
51 l-21 22 46 13 c35 10 49 10 58 1 19 -19 65 -13 77 10 9 16 8 26 -4 43 -13
21 -13 26 0 42 13 18 15 18 38 -8 13 -15 39 -65 56 -113 51 -134 110 -177 212
-155 29 6 72 22 96 35 50 28 62 30 62 13 0 -6 10 -22 22 -35 l21 -23 -37 0
c-33 0 -39 -4 -52 -35 -22 -52 -18 -82 13 -102 32 -21 126 -23 163 -3 17 9 25
10 28 1 2 -6 25 -11 53 -11 48 0 51 2 65 35 18 43 22 44 20 2 l-1 -32 56 -3
c51 -3 57 -1 62 20 l6 22 26 -24 c22 -21 36 -25 83 -24 32 0 71 8 90 18 27 14
32 14 32 2 0 -13 21 -15 124 -15 l125 0 22 57 c12 31 22 74 23 95 0 20 4 37 8
37 4 0 17 18 28 40 19 38 40 53 40 29 0 -6 -18 -60 -40 -120 -22 -60 -40 -116
-40 -124 0 -13 11 -15 61 -13 l62 3 47 130 c45 126 47 130 77 133 26 3 34 10
46 40 8 20 13 40 10 45 -7 12 -241 9 -245 -4 -3 -9 -9 -9 -25 0 -12 6 -62 11
-111 11 -84 0 -90 -1 -95 -22 l-6 -22 -25 23 c-32 31 -123 34 -173 8 -29 -15
-33 -16 -33 -2 0 12 -12 15 -54 15 -52 0 -54 -1 -69 -37 l-15 -38 -1 38 -1 37
-54 0 c-40 0 -55 -4 -60 -16 -5 -14 -8 -14 -28 0 -12 9 -32 16 -44 16 -37 0
-35 12 16 65 100 106 230 334 238 417 9 97 -41 126 -196 110 -109 -12 -173 -8
-282 14 -116 25 -142 38 -138 71 3 28 3 28 67 24 59 -3 63 -2 57 15 -5 11 -17
43 -28 72 -12 28 -25 52 -30 52 -4 0 -26 -11 -47 -24 l-39 -25 -25 38 c-46 70
-165 100 -257 66 -25 -9 -52 -19 -61 -21 -11 -4 -21 8 -37 45 -11 28 -25 51
-29 51 -4 0 -28 -14 -53 -30z m69 -54 l31 -45 55 20 c103 36 193 20 257 -48
34 -36 48 -73 48 -128 0 -42 3 -46 39 -64 66 -34 181 -61 284 -68 l98 -6 -64
-27 c-81 -34 -142 -76 -228 -158 -112 -105 -230 -276 -255 -371 -7 -25 -13
-40 -13 -32 -3 62 -241 331 -241 272 0 -5 7 -14 16 -22 24 -20 44 -65 44 -100
0 -41 -60 -103 -115 -118 -55 -15 -234 -14 -265 2 -14 7 -26 23 -28 35 -4 28
-7 28 -44 -3 -53 -45 -108 -46 -108 -1 0 16 17 40 55 74 30 28 55 53 55 57 0
3 -17 -4 -38 -16 -21 -13 -46 -20 -55 -16 -24 9 -36 67 -26 123 15 81 49 136
98 161 l43 22 -28 7 c-84 20 -105 56 -58 93 31 24 68 26 104 6 34 -19 43 -18
31 3 -11 22 12 67 62 120 36 37 53 40 62 12 9 -30 60 -27 90 6 25 27 72 151
61 161 -3 4 -11 -7 -16 -24 -17 -48 -56 -117 -73 -127 -28 -18 -44 10 -51 87
-4 39 -9 80 -12 90 -5 16 0 18 39 16 35 -2 51 3 78 24 19 15 35 27 36 27 1 0
16 -20 32 -44z m486 -116 c21 -47 15 -59 -20 -40 -20 11 -27 11 -40 0 -13 -11
-15 -8 -15 23 0 24 6 40 18 46 29 17 38 13 57 -29z m484 -264 c29 -60 -23
-202 -121 -332 -75 -98 -137 -158 -191 -182 -28 -13 -54 -33 -64 -50 -24 -43
-121 -93 -191 -99 -47 -4 -61 -2 -82 15 -57 46 -20 176 98 342 139 195 350
343 482 337 49 -2 56 -5 69 -31z m-887 -508 c-15 -15 -26 -4 -18 18 5 13 9 15
18 6 9 -9 9 -15 0 -24z m703 -30 c20 -9 25 -17 21 -32 -3 -12 -6 -24 -6 -28 0
-5 -13 -8 -30 -8 -25 0 -30 4 -30 25 0 20 -5 25 -25 25 -14 0 -29 -8 -35 -19
-19 -37 -11 -60 30 -87 50 -33 56 -53 32 -108 -25 -55 -51 -70 -124 -70 -69
-1 -83 10 -74 58 6 32 10 36 37 36 28 0 30 -2 27 -33 -3 -27 0 -32 21 -35 29
-5 51 20 51 57 0 17 -15 39 -46 67 l-45 42 16 38 c21 51 32 63 69 73 45 13 81
13 111 -1z m494 -4 c27 -19 26 -29 -25 -161 -41 -106 -65 -131 -141 -140 -38
-4 -53 -1 -72 14 l-24 19 23 70 c46 140 65 173 112 194 53 24 96 25 127 4z
m-347 -66 c2 -42 8 -73 14 -75 7 -2 24 29 39 72 24 64 31 75 51 75 13 0 24 -3
24 -6 0 -4 -23 -71 -52 -150 l-52 -144 -34 0 -34 0 3 72 c5 99 -16 99 -50 1
-24 -66 -28 -73 -53 -73 -26 0 -27 2 -17 28 6 15 28 74 49 132 21 58 41 113
45 123 5 10 18 17 36 17 28 0 28 0 31 -72z m592 66 c20 -8 20 -34 2 -78 -10
-25 -22 -36 -45 -41 -36 -8 -40 -20 -11 -35 25 -13 25 -16 -1 -85 -19 -50 -23
-55 -51 -55 -20 0 -29 4 -26 13 42 117 43 118 28 128 -29 18 -44 3 -69 -69
-25 -69 -27 -72 -58 -72 -18 0 -33 3 -33 8 0 4 23 71 52 150 l52 142 72 0 c40
0 79 -3 88 -6z m246 -14 c-7 -13 -21 -20 -38 -20 -27 0 -30 -6 -71 -122 -24
-68 -47 -127 -51 -131 -4 -5 -21 -7 -38 -5 l-30 3 44 115 c23 63 43 121 43
128 1 6 -10 12 -24 12 -27 0 -28 1 -19 24 5 13 24 16 100 16 92 0 94 -1 84
-20z m-1822 -22 c14 -14 16 -48 4 -48 -5 0 -21 14 -37 30 l-29 30 25 0 c14 0
30 -5 37 -12z m-73 -27 c49 -22 79 -54 100 -104 14 -35 14 -40 -5 -76 -11 -22
-25 -43 -31 -46 -6 -4 -3 7 6 24 21 42 11 93 -27 136 -36 41 -79 58 -104 41
-15 -11 -12 -15 25 -29 52 -21 45 -42 -12 -34 -25 3 -50 15 -66 32 l-26 26 28
25 c33 29 58 30 112 5z m924 -38 c0 -5 -3 -15 -7 -25 -6 -14 -10 -14 -37 8
l-30 24 38 0 c20 0 37 -3 36 -7z"/>
<path d="M1373 1156 c-21 -19 -35 -38 -30 -42 4 -4 22 7 40 24 41 40 52 40 66
1 14 -40 14 -36 -7 -42 -22 -5 -34 -39 -21 -58 8 -11 14 -9 32 12 12 14 30 29
40 32 9 4 17 12 17 18 0 8 -4 8 -15 -1 -17 -14 -23 -5 -27 50 -4 51 -43 54
-95 6z m68 -103 c-10 -17 -10 -16 -11 3 0 23 13 41 18 25 2 -6 -1 -18 -7 -28z"/>
<path d="M1505 1049 c-8 -25 1 -37 17 -21 9 9 9 12 -1 12 -7 0 -9 5 -6 10 4 6
11 8 16 5 5 -4 9 -1 9 4 0 20 -29 11 -35 -10z"/>
<path d="M1133 505 c-9 -25 2 -27 22 -5 17 18 17 20 1 20 -9 0 -19 -7 -23 -15z"/>
<path d="M1969 813 c-62 -31 -197 -161 -277 -268 -59 -79 -108 -173 -116 -225
-5 -31 -5 -32 4 -11 6 14 38 49 71 79 85 78 244 265 292 345 23 39 50 73 64
78 12 5 23 13 23 19 0 13 2 14 -61 -17z"/>
<path d="M2060 734 c-25 -14 -67 -46 -93 -72 -87 -84 -227 -287 -227 -328 0
-25 217 214 280 307 34 51 69 99 78 106 27 20 10 15 -38 -13z"/>
<path d="M2355 310 c-18 -28 -85 -226 -81 -237 8 -20 44 -15 56 7 24 45 81
214 76 227 -6 15 -42 18 -51 3z"/>
<path d="M2587 269 c-18 -46 -15 -59 13 -59 24 0 50 37 50 72 0 23 -4 28 -23
28 -19 0 -28 -9 -40 -41z"/>
<path d="M3010 351 c-5 -11 -10 -26 -10 -35 0 -14 36 -46 52 -46 13 0 48 39
48 54 0 41 -71 62 -90 27z m70 -12 c9 -15 8 -24 -1 -35 -18 -21 -57 -18 -64 6
-14 44 44 69 65 29z"/>
<path d="M3031 323 c0 -16 3 -22 6 -15 3 9 9 10 17 3 8 -7 12 -3 14 15 1 18
-3 24 -18 24 -15 0 -20 -6 -19 -27z"/>
</g>
</svg>
