<?xml version="1.0" standalone="no"?>
<!DOCTYPE svg PUBLIC "-//W3C//DTD SVG 20010904//EN"
 "http://www.w3.org/TR/2001/REC-SVG-20010904/DTD/svg10.dtd">
<svg version="1.0" xmlns="http://www.w3.org/2000/svg"
 width="422.000000pt" height="119.000000pt" viewBox="0 0 422.000000 119.000000"
 preserveAspectRatio="xMidYMid meet">

<g transform="translate(0.000000,119.000000) scale(0.100000,-0.100000)"
fill="#000000" stroke="none">
<path d="M3110 605 l0 -355 54 0 54 0 4 188 c3 162 6 191 22 218 25 42 65 64
116 64 57 0 96 -23 122 -73 19 -37 22 -62 26 -219 l4 -178 55 0 55 0 -4 198
c-4 180 -6 202 -27 250 -13 28 -38 65 -57 81 -74 65 -228 61 -301 -8 -12 -12
-25 -21 -28 -21 -4 0 -5 47 -3 105 l3 105 -47 0 -48 0 0 -355z"/>
<path d="M1335 812 c-35 -11 -67 -33 -106 -72 -47 -47 -58 -65 -74 -122 -23
-87 -16 -163 22 -237 76 -148 282 -200 411 -104 l32 24 0 -30 0 -31 60 0 60 0
-2 288 -3 287 -55 0 c-53 0 -55 -1 -58 -28 l-3 -27 -26 20 c-33 26 -115 50
-167 49 -23 0 -63 -8 -91 -17z m220 -126 c144 -110 62 -357 -117 -356 -183 1
-251 269 -93 366 34 21 50 24 106 22 55 -3 73 -9 104 -32z"/>
<path d="M2440 623 c1 -213 7 -245 54 -307 43 -57 106 -81 211 -81 81 0 95 3
143 29 106 59 122 106 122 362 l0 194 -55 0 -55 0 0 -183 c0 -170 -2 -186 -22
-227 -28 -55 -65 -75 -140 -75 -66 0 -103 21 -130 76 -15 29 -18 63 -18 222
l0 187 -55 0 -55 0 0 -197z"/>
<path d="M366 638 c29 -95 68 -221 85 -280 l32 -108 47 0 46 0 63 196 c35 107
67 192 71 187 5 -4 35 -91 67 -193 l60 -185 46 -3 46 -3 36 118 c20 65 57 183
81 263 25 80 48 153 50 163 5 15 -2 17 -49 17 l-53 0 -59 -190 c-32 -105 -62
-185 -65 -178 -4 7 -31 93 -60 191 l-54 177 -48 0 -47 0 -50 -157 c-27 -87
-53 -170 -56 -185 -4 -16 -10 -28 -14 -28 -3 0 -31 82 -62 183 l-55 182 -56 3
-56 3 54 -173z"/>
<path d="M1872 763 l3 -48 142 -5 142 -5 -159 -223 c-88 -122 -160 -225 -160
-227 0 -3 110 -5 245 -5 l245 0 0 45 0 44 -155 3 -155 3 160 223 c88 123 160
228 160 233 0 5 -102 9 -236 9 l-235 0 3 -47z"/>
<path d="M3793 400 c-28 -12 -43 -40 -43 -84 0 -41 37 -76 80 -76 15 0 39 9
54 21 21 16 26 29 26 63 0 29 -6 48 -18 59 -23 21 -70 29 -99 17z"/>
</g>
</svg>
